<svg width="75" height="76" viewBox="0 0 75 76" fill="none" xmlns="http://www.w3.org/2000/svg">
<circle cx="66.3386" cy="9.16142" r="8.66142" fill="#092137"/>
<circle cx="37.5" cy="9.25982" r="6.39764" fill="#092137"/>
<circle cx="37.5" cy="66.7402" r="6.39764" fill="#092137"/>
<circle cx="66.2402" cy="38" r="6.39764" fill="#092137"/>
<circle cx="52.0669" cy="52.5669" r="6.39764" fill="#092137"/>
<circle cx="23.3268" cy="52.5669" r="6.39764" fill="#092137"/>
<circle cx="23.3268" cy="23.6299" r="6.39764" fill="#092137"/>
<circle cx="52.0669" cy="23.6299" r="6.39764" fill="#092137"/>
<circle cx="66.2402" cy="23.6299" r="3.83858" fill="#092137"/>
<circle cx="9.15355" cy="23.8267" r="3.83858" fill="#092137"/>
<circle cx="37.5" cy="23.8267" r="3.83858" fill="#092137"/>
<circle cx="52.0669" cy="9.06301" r="3.83858" transform="rotate(90 52.0669 9.06301)" fill="#092137"/>
<circle cx="52.0669" cy="37.8031" r="3.83858" transform="rotate(90 52.0669 37.8031)" fill="#092137"/>
<circle cx="52.0669" cy="66.7401" r="3.83858" transform="rotate(90 52.0669 66.7401)" fill="#092137"/>
<circle cx="66.2402" cy="52.5669" r="3.83858" fill="#092137"/>
<circle cx="9.15355" cy="52.7638" r="3.83858" fill="#092137"/>
<circle cx="37.5" cy="52.7638" r="3.83858" fill="#092137"/>
<circle cx="23.1299" cy="9.06301" r="3.83858" transform="rotate(90 23.1299 9.06301)" fill="#092137"/>
<circle cx="23.1299" cy="37.8031" r="3.83858" transform="rotate(90 23.1299 37.8031)" fill="#092137"/>
<circle cx="23.1299" cy="66.7401" r="3.83858" transform="rotate(90 23.1299 66.7401)" fill="#092137"/>
<circle cx="8.56298" cy="38" r="6.39764" fill="#092137"/>
<circle cx="66.3386" cy="66.8386" r="8.66142" fill="#092137"/>
<circle cx="8.66142" cy="66.8386" r="8.66142" fill="#092137"/>
<circle cx="8.66142" cy="9.16142" r="8.66142" fill="#092137"/>
<circle cx="37.5984" cy="38.2953" r="8.66142" fill="#092137"/>
</svg>
